<?xml version="1.0" encoding="UTF-8"?>
<svg width="16px" height="16px" viewBox="0 0 16 16" version="1.1" xmlns="http://www.w3.org/2000/svg" xmlns:xlink="http://www.w3.org/1999/xlink">
    <title>有帮助</title>
    <g id="切图" stroke="none" stroke-width="1" fill="none" fill-rule="evenodd">
        <g transform="translate(-126, -24)" id="有帮助">
            <g transform="translate(126, 24)">
                <rect id="Rectangle" fill="#FFFFFF" opacity="0" x="0" y="0" width="16" height="16"></rect>
                <path d="M6.1135625,2.00388651 C6.1135625,0.372636513 7.3083125,-0.0115509867 7.9765625,0.00026151326 C9.333875,0.00026151326 9.7101875,1.13032401 9.822125,1.73163651 C9.961625,2.47976151 9.8255,4.26794901 9.7625,5.08919901 L9.7608125,5.11226151 C9.8558181,5.09045405 9.953025,5.07969523 10.0505,5.08019901 L12.220625,5.08019901 C13.098125,5.08019901 13.8125,5.79457401 13.8125,6.67207401 C13.8125,7.12544901 13.6668125,7.53551151 13.3821875,7.82519901 C13.9694375,8.08451151 14.375,8.62844901 14.375,9.25619901 C14.375,9.83163651 14.1145625,10.336199 13.60775,10.616324 C14.0706875,10.9037615 14.375,11.384699 14.375,11.928074 C14.375,12.5507615 14.0695625,13.0918865 13.476125,13.3528865 C13.6870625,13.5700115 13.8125,13.8928865 13.8125,14.3620115 C13.8125,15.1382615 13.2674375,15.7695098 12.220625,15.7695098 L10.0505,15.7695098 C10.0251875,15.7695098 9.999875,15.7695098 9.975125,15.767699 L8.2139375,15.767699 C2.3425625,15.864449 2,12.058574 2,10.511699 C2,7.61144901 3.292625,6.74913651 4.44125,5.98301151 C4.984625,5.62076151 5.4959375,5.27988651 5.8233125,4.75507401 C6.0978125,4.31463651 6.113,3.91132401 6.113,2.00444901" id="Path" fill="#FFD7C2" fill-rule="nonzero"></path>
                <rect id="Rectangle" fill="#DD5D59" x="2" y="5" width="3" height="11" rx="1"></rect>
                <path d="M9.875,5.08019901 C9.30125,5.09763651 7.625,5.41432401 7.625,6.75026151 C7.625,7.45338651 7.8888125,7.84882401 8.2049375,8.06876151 C7.8888125,8.20938651 7.6075625,8.73138651 7.6075625,9.37826151 C7.6075625,10.0982615 8.2049375,10.6258865 8.2049375,10.6258865 C8.2049375,10.6258865 7.6075625,11.2063865 7.6075625,11.9005115 C7.6075625,12.4247615 7.8370625,12.8117615 8.2049375,13.0750115 C8.0058125,13.1875115 7.6075625,13.577324 7.6075625,14.2382615 C7.6075625,15.026324 8.3433125,15.686699 9.7844375,15.7457615 C9.0824375,15.615824 8.741,14.972324 8.741,14.3620115 C8.741,14.1606365 8.816375,13.8366365 9.0036875,13.5508865 L12.125,13.5508865 C12.2803301,13.5508865 12.40625,13.4249666 12.40625,13.2696365 C12.40625,13.1143064 12.2803301,12.9883865 12.125,12.9883865 L9.0813125,12.9883865 C8.8535,12.6902615 8.741,12.3032615 8.741,11.928074 C8.741,11.694074 8.8293125,11.316074 9.048125,10.986449 L12.125,10.986449 C12.2803301,10.986449 12.40625,10.8605291 12.40625,10.705199 C12.40625,10.5498689 12.2803301,10.423949 12.125,10.423949 L9.171875,10.423949 C8.8833125,10.114574 8.741,9.67863651 8.741,9.25619901 C8.741,9.05538651 8.80625,8.74713651 8.96375,8.45519901 L12.125,8.45519901 C12.2803301,8.45519901 12.40625,8.3292791 12.40625,8.17394901 C12.40625,8.01861893 12.2803301,7.89269901 12.125,7.89269901 L9.2151875,7.89269901 C8.8979375,7.55688651 8.741,7.05794901 8.741,6.67207401 C8.741,6.21644901 8.9901875,5.20957401 9.875,5.09144901 L9.875,5.08019901 Z" id="Path" fill="#F1B99B" fill-rule="nonzero"></path>
            </g>
        </g>
    </g>
</svg>