<?xml version="1.0" encoding="UTF-8"?>
<svg width="16px" height="16px" viewBox="0 0 16 16" version="1.1" xmlns="http://www.w3.org/2000/svg" xmlns:xlink="http://www.w3.org/1999/xlink">
    <title>无帮助</title>
    <g id="切图" stroke="none" stroke-width="1" fill="none" fill-rule="evenodd">
        <g transform="translate(-100, -24)" id="无帮助">
            <g transform="translate(108, 32) scale(-1, -1) translate(-108, -32)translate(100, 24)">
                <rect id="Rectangle" fill="#FFFFFF" opacity="0" x="0" y="0" width="16" height="16"></rect>
                <path d="M7.6015625,0.00026151326 C8.958875,0.00026151326 9.3351875,1.13032401 9.447125,1.73163651 C9.586625,2.47976151 9.4505,4.26794901 9.3875,5.08919901 L9.3858125,5.11226151 C9.4808181,5.09045405 9.578025,5.07969523 9.6755,5.08019901 L11.845625,5.08019901 C12.723125,5.08019901 13.4375,5.79457401 13.4375,6.67207401 C13.4375,7.12544901 13.2918125,7.53551151 13.0071875,7.82519901 C13.5944375,8.08451151 14,8.62844901 14,9.25619901 C14,9.83163651 13.7395625,10.336199 13.23275,10.616324 C13.6956875,10.9037615 14,11.384699 14,11.928074 C14,12.5507615 13.6945625,13.0918865 13.101125,13.3528865 C13.3120625,13.5700115 13.4375,13.8928865 13.4375,14.3620115 C13.4375,15.1382615 12.8924375,15.7695098 11.845625,15.7695098 L9.6755,15.7695098 C9.6501875,15.7695098 9.624875,15.7695098 9.600125,15.767699 L7.8389375,15.767699 C1.9675625,15.864449 1.625,12.058574 1.625,10.511699 C1.625,7.61144901 2.917625,6.74913651 4.06625,5.98301151 C4.609625,5.62076151 5.1209375,5.27988651 5.4483125,4.75507401 C5.7228125,4.31463651 5.738,3.91132401 5.738,2.00444901 C5.7385625,0.372636513 6.9333125,-0.0115509867 7.6015625,0.00026151326 Z" id="Path" fill="#FFD7C2" fill-rule="nonzero"></path>
                <rect id="Rectangle" fill="#DD5D59" x="1.625" y="5" width="3" height="11" rx="1"></rect>
                <path d="M9.5,5.08019901 C8.92625,5.09763651 7.25,5.41432401 7.25,6.75026151 C7.25,7.45338651 7.5138125,7.84882401 7.8299375,8.06876151 C7.5138125,8.20938651 7.2325625,8.73138651 7.2325625,9.37826151 C7.2325625,10.0982615 7.8299375,10.6258865 7.8299375,10.6258865 C7.8299375,10.6258865 7.2325625,11.2063865 7.2325625,11.9005115 C7.2325625,12.4247615 7.4620625,12.8117615 7.8299375,13.0750115 C7.6308125,13.1875115 7.2325625,13.577324 7.2325625,14.2382615 C7.2325625,15.026324 7.9683125,15.686699 9.4094375,15.7457615 C8.7074375,15.615824 8.366,14.972324 8.366,14.3620115 C8.366,14.1606365 8.441375,13.8366365 8.6286875,13.5508865 L11.75,13.5508865 C11.9053301,13.5508865 12.03125,13.4249666 12.03125,13.2696365 C12.03125,13.1143064 11.9053301,12.9883865 11.75,12.9883865 L8.7063125,12.9883865 C8.4785,12.6902615 8.366,12.3032615 8.366,11.928074 C8.366,11.694074 8.4543125,11.316074 8.673125,10.986449 L11.75,10.986449 C11.9053301,10.986449 12.03125,10.8605291 12.03125,10.705199 C12.03125,10.5498689 11.9053301,10.423949 11.75,10.423949 L8.796875,10.423949 C8.5083125,10.114574 8.366,9.67863651 8.366,9.25619901 C8.366,9.05538651 8.43125,8.74713651 8.58875,8.45519901 L11.75,8.45519901 C11.9053301,8.45519901 12.03125,8.3292791 12.03125,8.17394901 C12.03125,8.01861893 11.9053301,7.89269901 11.75,7.89269901 L8.8401875,7.89269901 C8.5229375,7.55688651 8.366,7.05794901 8.366,6.67207401 C8.366,6.21644901 8.6151875,5.20957401 9.5,5.09144901 L9.5,5.08019901 Z" id="Path" fill="#F1B99B" fill-rule="nonzero"></path>
            </g>
        </g>
    </g>
</svg>