<?xml version="1.0" encoding="UTF-8"?>
<svg width="66px" height="66px" viewBox="0 0 66 66" version="1.1" xmlns="http://www.w3.org/2000/svg" xmlns:xlink="http://www.w3.org/1999/xlink">
    <title>分析</title>
    <defs>
        <path d="M21.5602792,36.907184 L24.6912548,32.3274279 L27.7014987,36.8749889 C28.1844255,37.5993791 28.9893036,38.0340132 29.8585718,38.0260743 C30.7278401,38.0179157 31.5327182,37.5752328 32.0075962,36.8508425 L40.2334499,24.0854767 C40.7324743,23.3127937 40.780767,22.3308425 40.3622304,21.5179157 C39.9436938,20.6969401 39.1227182,20.1657206 38.2051572,20.1254767 C37.2875962,20.077184 36.4183279,20.5279157 35.9193036,21.3005986 L29.8263767,30.7579157 L26.8805231,26.3069401 C26.405645,25.5905986 25.6088157,25.1640132 24.755645,25.1559645 C23.9024743,25.1479157 23.0975962,25.5664523 22.6146694,26.2747449 L17.3346694,34.0015742 C16.5539377,35.1686474 16.8597914,36.7542571 18.0188157,37.5510864 C19.1617426,38.3479157 20.7473523,38.0581596 21.5602792,36.907184 L21.5602792,36.907184 Z" id="path-1"></path>
        <filter x="-59.0%" y="-55.9%" width="217.9%" height="256.4%" filterUnits="objectBoundingBox" id="filter-2">
            <feOffset dx="0" dy="4" in="SourceAlpha" result="shadowOffsetOuter1"></feOffset>
            <feGaussianBlur stdDeviation="4" in="shadowOffsetOuter1" result="shadowBlurOuter1"></feGaussianBlur>
            <feColorMatrix values="0 0 0 0 0.130898364   0 0 0 0 0.426123703   0 0 0 0 0.689142642  0 0 0 1 0" type="matrix" in="shadowBlurOuter1"></feColorMatrix>
        </filter>
    </defs>
    <g id="切图" stroke="none" stroke-width="1" fill="none" fill-rule="evenodd">
        <g transform="translate(-424.000000, -396.000000)" id="分析">
            <g transform="translate(424.000000, 396.000000)">
                <path d="M58.4588003,29.0453378 C58.7511153,29.0453378 59.031458,29.160884 59.2381559,29.3665576 C59.4448539,29.5722313 59.5609756,29.8511846 59.5609756,30.142051 L59.5609756,30.2935307 C59.5609756,30.5843971 59.4448539,30.8633504 59.2381559,31.069024 C59.031458,31.2746977 58.7511153,31.3902439 58.4588003,31.3902439 L30.0777851,31.3902439 C29.78547,31.3902439 29.5051274,31.2746977 29.2984294,31.069024 C29.0917315,30.8633504 28.9756098,30.5843971 28.9756098,30.2935307 L28.9756098,30.142051 C28.9756098,29.536353 29.4690705,29.0453378 30.0777851,29.0453378 L58.4588003,29.0453378 Z M37.2845504,12.6567464 C37.893265,12.6567464 38.3867258,13.1477616 38.3867258,13.7534596 L38.3867258,26.7807159 C38.3867258,27.3864139 37.893265,27.8774291 37.2845504,27.8774291 L32.4313253,27.8774291 C31.8226106,27.8774291 31.3291499,27.3864139 31.3291499,26.7807159 L31.3291499,13.7534596 C31.3291499,13.1477616 31.8226107,12.6567464 32.4313253,12.6567464 L37.2845504,12.6567464 Z M56.1052601,16.1680464 C56.7139747,16.1680464 57.2074354,16.6590616 57.2074354,17.2647596 L57.2074354,26.7761715 C57.2074354,27.0670379 57.0913137,27.3459912 56.8846157,27.5516648 C56.6779178,27.7573385 56.3975752,27.8728847 56.1052601,27.8728847 L51.252035,27.8728847 C50.9597199,27.8728847 50.6793773,27.7573385 50.4726793,27.5516648 C50.2659813,27.3459912 50.1498596,27.0670379 50.1498596,26.7761715 L50.1498596,17.2647596 C50.1498596,16.9738932 50.2659813,16.6949399 50.4726793,16.4892662 C50.6793773,16.2835926 50.9597199,16.1680464 51.252035,16.1680464 L56.1052601,16.1680464 Z M46.7017558,5.63414634 C46.9940709,5.63414634 47.2744135,5.74969258 47.4811115,5.9553662 C47.6878094,6.16103983 47.8039311,6.43999312 47.8039311,6.73085955 L47.8039311,26.7761715 C47.8039311,27.3818695 47.3104704,27.8728847 46.7017558,27.8728847 L41.8424413,27.8728847 C41.5501262,27.8728847 41.2697836,27.7573385 41.0630856,27.5516648 C40.8563877,27.3459912 40.7402659,27.0670379 40.7402659,26.7761715 L40.7402659,6.73085955 C40.7402659,6.43999312 40.8563877,6.16103983 41.0630856,5.9553662 C41.2697836,5.74969258 41.5501262,5.63414634 41.8424413,5.63414634 L46.7017558,5.63414634 Z" id="形状" fill-rule="nonzero"></path>
                <rect id="矩形" fill="#1C8AEC" x="8.04878049" y="8.04878049" width="57.9512195" height="57.9512195" rx="3.2"></rect>
                <rect id="矩形备份-7" x="0" y="0" width="57.9512195" height="57.9512195" rx="3.2"></rect>
                <rect id="矩形备份-7" fill="#FFFFFF" opacity="0.300000012" x="0" y="0" width="57.9512195" height="57.9512195" rx="3.2"></rect>
                <g id="路径" fill-rule="nonzero">
                    <use fill="black" fill-opacity="1" filter="url(#filter-2)" xlink:href="#path-1"></use>
                    <use fill="#FFFFFF" xlink:href="#path-1"></use>
                </g>
            </g>
        </g>
    </g>
</svg>