<?xml version="1.0" encoding="UTF-8"?>
<svg width="66px" height="66px" viewBox="0 0 66 66" version="1.1" xmlns="http://www.w3.org/2000/svg" xmlns:xlink="http://www.w3.org/1999/xlink">
    <title>流程</title>
    <g id="切图" stroke="none" stroke-width="1" fill="none" fill-rule="evenodd">
        <g transform="translate(-642.000000, -396.000000)" id="流程">
            <g transform="translate(642.000000, 396.000000)">
                <path d="M58.4588003,29.0453378 C58.7511153,29.0453378 59.031458,29.160884 59.2381559,29.3665576 C59.4448539,29.5722313 59.5609756,29.8511846 59.5609756,30.142051 L59.5609756,30.2935307 C59.5609756,30.5843971 59.4448539,30.8633504 59.2381559,31.069024 C59.031458,31.2746977 58.7511153,31.3902439 58.4588003,31.3902439 L30.0777851,31.3902439 C29.78547,31.3902439 29.5051274,31.2746977 29.2984294,31.069024 C29.0917315,30.8633504 28.9756098,30.5843971 28.9756098,30.2935307 L28.9756098,30.142051 C28.9756098,29.536353 29.4690705,29.0453378 30.0777851,29.0453378 L58.4588003,29.0453378 Z M37.2845504,12.6567464 C37.893265,12.6567464 38.3867258,13.1477616 38.3867258,13.7534596 L38.3867258,26.7807159 C38.3867258,27.3864139 37.893265,27.8774291 37.2845504,27.8774291 L32.4313253,27.8774291 C31.8226106,27.8774291 31.3291499,27.3864139 31.3291499,26.7807159 L31.3291499,13.7534596 C31.3291499,13.1477616 31.8226107,12.6567464 32.4313253,12.6567464 L37.2845504,12.6567464 Z M56.1052601,16.1680464 C56.7139747,16.1680464 57.2074354,16.6590616 57.2074354,17.2647596 L57.2074354,26.7761715 C57.2074354,27.0670379 57.0913137,27.3459912 56.8846157,27.5516648 C56.6779178,27.7573385 56.3975752,27.8728847 56.1052601,27.8728847 L51.252035,27.8728847 C50.9597199,27.8728847 50.6793773,27.7573385 50.4726793,27.5516648 C50.2659813,27.3459912 50.1498596,27.0670379 50.1498596,26.7761715 L50.1498596,17.2647596 C50.1498596,16.9738932 50.2659813,16.6949399 50.4726793,16.4892662 C50.6793773,16.2835926 50.9597199,16.1680464 51.252035,16.1680464 L56.1052601,16.1680464 Z M46.7017558,5.63414634 C46.9940709,5.63414634 47.2744135,5.74969258 47.4811115,5.9553662 C47.6878094,6.16103983 47.8039311,6.43999312 47.8039311,6.73085955 L47.8039311,26.7761715 C47.8039311,27.3818695 47.3104704,27.8728847 46.7017558,27.8728847 L41.8424413,27.8728847 C41.5501262,27.8728847 41.2697836,27.7573385 41.0630856,27.5516648 C40.8563877,27.3459912 40.7402659,27.0670379 40.7402659,26.7761715 L40.7402659,6.73085955 C40.7402659,6.43999312 40.8563877,6.16103983 41.0630856,5.9553662 C41.2697836,5.74969258 41.5501262,5.63414634 41.8424413,5.63414634 L46.7017558,5.63414634 Z" id="形状" fill-rule="nonzero"></path>
                <rect id="矩形" fill="#1C8AEC" x="8.04878049" y="8.04878049" width="57.9512195" height="57.9512195" rx="3.2"></rect>
                <rect id="矩形备份-7" x="0" y="0" width="57.9512195" height="57.9512195" rx="3.2"></rect>
                <rect id="矩形备份-7" fill="#FFFFFF" opacity="0.300000012" x="0" y="0" width="57.9512195" height="57.9512195" rx="3.2"></rect>
                <path d="M41,28 C44.3137085,28 47,25.3137085 47,22 C47,18.6862915 44.3137085,16 41,16" id="路径" stroke="#FFFFFF" opacity="0.400000006" stroke-linecap="round"></path>
                <path d="M11,40 C14.3137085,40 17,37.3137085 17,34 C17,30.6862915 14.3137085,28 11,28" id="路径备份" stroke="#FFFFFF" opacity="0.400000006" stroke-linecap="round" transform="translate(14.000000, 34.000000) scale(-1, 1) translate(-14.000000, -34.000000) "></path>
                <rect id="矩形" fill="#FFFFFF" x="18" y="13" width="22" height="6" rx="3"></rect>
                <rect id="矩形备份-8" stroke="#FFFFFF" stroke-width="2" x="19" y="26" width="20" height="4" rx="2"></rect>
                <rect id="矩形备份-9" fill="#FFFFFF" x="18" y="36" width="22" height="6" rx="3"></rect>
            </g>
        </g>
    </g>
</svg>