<?xml version="1.0" encoding="UTF-8"?>
<svg width="70px" height="72px" viewBox="0 0 70 72" version="1.1" xmlns="http://www.w3.org/2000/svg" xmlns:xlink="http://www.w3.org/1999/xlink">
    <title>协作</title>
    <g id="切图" stroke="none" stroke-width="1" fill="none" fill-rule="evenodd">
        <g transform="translate(-202.000000, -393.000000)" id="协作">
            <g transform="translate(202.000000, 393.000000)">
                <polygon id="多边形" fill="#1C8AEC" points="38 8 65.7128129 24 65.7128129 56 38 72 10.2871871 56 10.2871871 24"></polygon>
                <polygon id="多边形" points="32 0 59.7128129 16 59.7128129 48 32 64 4.28718708 48 4.28718708 16"></polygon>
                <polygon id="多边形" fill="#FFFFFF" opacity="0.300000012" points="32 0 59.7128129 16 59.7128129 48 32 64 4.28718708 48 4.28718708 16"></polygon>
                <path d="M39.5731684,39.9774949 L39.488687,40.0573304 C37.5250093,41.8832499 34.8929201,43 32,43 C29.0648293,43 26.398164,41.8503919 24.4257046,39.9768762 C25.9106235,39.8200999 27.1522317,38.8514218 27.699659,37.5234574 C28.8859247,38.4487271 30.378584,39 32,39 C33.621416,39 35.1140753,38.4487271 36.3007726,37.5233866 C36.8477683,38.8514218 38.0893765,39.8200999 39.5731684,39.9774949 Z M28,23 C28,24.0240431 28.3848153,24.9582078 29.0177283,25.6657766 C26.643509,26.7846468 25,29.2003923 25,32 L25.0027707,32.1267317 C24.6823167,32.0440063 24.3462975,32 24,32 C22.8443677,32 21.8031966,32.4900667 21.0729712,33.2737154 C21.0247902,32.8562521 21,32.4310211 21,32 C21,27.2748971 23.979241,23.2456333 28.1617436,21.6881878 L28.228641,21.6637466 C28.0805805,22.0816101 28,22.5313948 28,23 Z M35.771359,21.6637466 L35.8382564,21.6881878 C40.020759,23.2456333 43,27.2748971 43,32 C43,32.4310211 42.9752098,32.8562521 42.9269774,33.274345 C42.1968034,32.4900667 41.1556323,32 40,32 C39.6537025,32 39.3176833,32.0440063 38.9972293,32.1267317 C38.9996191,32.0851508 39,32.0426199 39,32 C39,29.2003923 37.356491,26.7846468 34.9816621,25.6649525 C35.6151847,24.9582078 36,24.0240431 36,23 C36,22.5313948 35.9194195,22.0816101 35.771359,21.6637466 Z" id="形状结合" fill="#FFFFFF" fill-rule="nonzero"></path>
                <path d="M32,27 C34.209139,27 36,25.209139 36,23 C36,20.790861 34.209139,19 32,19 C29.790861,19 28,20.790861 28,23 C28,25.209139 29.790861,27 32,27 Z M40,40 C42.209139,40 44,38.209139 44,36 C44,33.790861 42.209139,32 40,32 C37.790861,32 36,33.790861 36,36 C36,38.209139 37.790861,40 40,40 Z M24,40 C26.209139,40 28,38.209139 28,36 C28,33.790861 26.209139,32 24,32 C21.790861,32 20,33.790861 20,36 C20,38.209139 21.790861,40 24,40 Z" id="形状结合" stroke="#FFFFFF" stroke-width="4"></path>
            </g>
        </g>
    </g>
</svg>