<?xml version="1.0" standalone="no"?><!DOCTYPE svg PUBLIC "-//W3C//DTD SVG 1.1//EN" "http://www.w3.org/Graphics/SVG/1.1/DTD/svg11.dtd"><svg t="1604224563140" class="icon" viewBox="0 0 1024 1024" version="1.1" xmlns="http://www.w3.org/2000/svg" p-id="8814" xmlns:xlink="http://www.w3.org/1999/xlink" width="200" height="200"><defs><style type="text/css"></style></defs><path d="M512 981.333A469.333 469.333 0 1 1 981.333 512 469.333 469.333 0 0 1 512 981.333zM447.573 506.88L285.44 669.013a42.667 42.667 0 1 0 58.88 58.88L506.453 565.76l162.134 162.133a42.667 42.667 0 1 0 58.88-58.88L565.333 506.88l162.134-162.133a42.667 42.667 0 1 0-58.88-58.88L506.453 448 344.32 285.867a42.667 42.667 0 0 0-58.88 58.453z" p-id="8815" fill="#C84C5A"></path></svg>