<?xml version="1.0" encoding="UTF-8"?>
<svg width="16px" height="14px" viewBox="0 0 16 14" version="1.1" xmlns="http://www.w3.org/2000/svg" xmlns:xlink="http://www.w3.org/1999/xlink">
    <!-- Generator: Sketch 63.1 (92452) - https://sketch.com -->
    <title></title>
    <desc>Created with Sketch.</desc>
    <g id="体验优化" stroke="none" stroke-width="1" fill="none" fill-rule="evenodd">
        <g id="1-成员管理" transform="translate(-1271.000000, -18.000000)" fill-rule="nonzero">
            <g id="导航备份-2">
                <g id="设置" transform="translate(1271.000000, 17.000000)">
                    <rect id="矩形" fill="#000000" opacity="0" x="0" y="0" width="16" height="16"></rect>
                    <path d="M15.04576,9.4092 C14.9036,10.16584 14.36728,10.67424 13.71112,10.67424 L13.63592,10.67424 C13.1653033,10.6793836 12.7875214,11.0642489 12.79112,11.53488 C12.7948609,11.6038326 12.8077746,11.6719792 12.82952,11.73752 C12.8408267,11.7760267 12.8538667,11.8138933 12.86864,11.85112 C13.1685319,12.538351 12.9409212,13.3417226 12.32512,13.76952 L12.27712,13.80072 C12.26856,13.80632 12.25968,13.81168 12.25072,13.81672 L10.62344,14.72872 C10.610432,14.7357767 10.5970823,14.7421846 10.58344,14.74792 L10.56744,14.75592 C10.3672423,14.8429897 10.1511099,14.8874259 9.9328,14.8864 C9.48690061,14.8887575 9.05924375,14.7095442 8.74824,14.39 C8.59357008,14.2303424 8.41576835,14.0948539 8.2208,13.98808 C8.16164363,13.9567359 8.09574696,13.9402617 8.0288,13.94008 C7.96183845,13.9396858 7.8960564,13.9577019 7.83864,13.99216 C7.64374939,14.1015639 7.46600773,14.2390347 7.31112,14.40016 C7.00000156,14.7253637 6.56868965,14.9080911 6.11864,14.9053902 C5.90436455,14.9064529 5.69216342,14.86337 5.49528,14.7788 L5.4816,14.77328 L5.43128,14.74928 C5.42210667,14.7448 5.41304,14.74 5.40408,14.73488 L3.71928,13.79816 C3.70549714,13.7903213 3.69214463,13.781749 3.67928,13.77248 L3.66328,13.76128 C3.05420538,13.3306115 2.83207254,12.5309466 3.13176,11.84784 C3.14562667,11.81184 3.15786667,11.77528 3.16848,11.73816 C3.19051271,11.6723856 3.20369506,11.6039719 3.20768,11.53472 C3.21105817,11.064368 2.83353404,10.6797984 2.3632,10.67448 L2.29528,10.67448 C1.63424,10.67448 1.09528,10.16608 0.95328,9.40944 C0.863911858,8.94315318 0.814718094,8.47005799 0.80624,7.99536 C0.814135125,7.5203756 0.863604029,7.0469946 0.95408,6.58064 C1.0956,5.82408 1.63504,5.3156 2.2976,5.3156 L2.3632,5.3156 C2.83383536,5.31050011 3.21164269,4.92560889 3.208,4.45496 C3.19593027,4.3466404 3.16987326,4.24034177 3.13048,4.13872 C2.83360745,3.45738682 3.05430819,2.66124244 3.6596,2.23 L3.67232,2.2212 L3.71872,2.19072 C3.7276,2.18512 3.73664,2.17976 3.74592,2.17472 L5.34224,1.274 C5.35498064,1.26698296 5.36803415,1.26054963 5.38136,1.25472 L5.39736,1.24672 C5.59771976,1.15837392 5.81447037,1.11331182 6.03344,1.11448 C6.48922889,1.11138977 6.92526374,1.3003111 7.23472,1.63496 C7.39782546,1.80877564 7.58647188,1.95671457 7.79416,2.07368 C7.90008758,2.13034961 8.02712224,2.13124717 8.13384,2.07608 C8.34650812,1.95605742 8.5388351,1.80312466 8.70368,1.62296 C9.01333011,1.28338813 9.45261453,1.0912848 9.91216,1.09444077 C10.1271091,1.09353874 10.3399242,1.13712047 10.5372,1.22248 L10.5516,1.22896 L10.60032,1.25208 C10.60928,1.25661333 10.61808,1.26144 10.62672,1.26656 L12.2812,2.19288 C12.2943707,2.20022731 12.3071604,2.20823759 12.31952,2.21688 L12.33552,2.22808 C12.9437621,2.65933386 13.1657123,3.45834125 12.86704,4.14152 C12.86704,4.14232 12.84944,4.1856 12.83024,4.2512 C12.8082124,4.31697228 12.7950564,4.38538891 12.79112,4.45464 C12.7876095,4.92523544 13.1653405,5.31004893 13.63592,5.31528 L13.70224,5.31528 C14.36408,5.31528 14.9036,5.82376 15.04504,6.58032 C15.1351147,7.04643772 15.1845802,7.51949138 15.19288,7.99416 L15.19288,7.99504 C15.1841367,8.46975221 15.1349183,8.94285364 15.04576,9.4092 L15.04576,9.4092 Z M14.27288,6.69168 C14.22656,6.44432 14.07544,6.15496 13.804,6.15496 L13.73728,6.15496 C12.7557042,6.15050763 11.9628577,5.35254417 11.96472,4.37096 C11.9682953,4.2134127 11.9942896,4.05717746 12.04192,3.90696 C12.063532,3.83202551 12.0893326,3.75836302 12.1192,3.68632 C12.2434808,3.39505185 12.1520793,3.05656219 11.89808,2.86744 L11.894,2.86504 L11.8908,2.86264 L10.22296,1.93552 L10.21976,1.93312 L10.21568,1.93144 C9.93268181,1.82160092 9.61135282,1.89405808 9.40288,2.11472 C9.142,2.40168 8.50808,2.94496 7.97248,2.94496 C7.75648,2.94496 7.4872,2.84768 7.19648,2.6636 C6.96032272,2.51364641 6.74400501,2.33452846 6.55264,2.13048 C6.3422423,1.91107787 6.01982635,1.84115253 5.73744,1.95368 L5.73344,1.95528 L5.73016,1.95768 L4.12088,2.86304 L4.1176,2.86472 L4.11352,2.86792 C3.86041773,3.057676 3.76948284,3.39566058 3.8932,3.6868 C3.92277959,3.75894393 3.94854844,3.8325921 3.9704,3.90744 C4.01815507,4.05762745 4.04415238,4.21388071 4.0476,4.37144 C4.0492407,5.3532756 3.25598804,6.15125171 2.27416,6.15544 L2.20624,6.15544 C1.9364,6.15704 1.78608,6.44568 1.73976,6.69216 C1.65831286,7.10878199 1.61342217,7.53172351 1.6056,7.95616 C1.61340562,8.3808887 1.65829622,8.80412388 1.73976,9.22104 C1.78608,9.46832 1.9364,9.75776 2.20704,9.75776 L2.27504,9.75776 C3.25664712,9.76216841 4.04954217,10.5601447 4.04768,11.54176 C4.04428189,11.6993239 4.01828341,11.8555842 3.97048,12.00576 C3.94947228,12.0808237 3.92368634,12.1544672 3.89328,12.22624 C3.76894183,12.5176975 3.86072097,12.8563936 4.1152,13.0452 L4.11928,13.0476 L4.12336,13.05008 L5.81936,13.98888 L5.82336,13.99056 L5.82824,13.99216 C6.10978293,14.1002034 6.42856415,14.0318349 6.64104,13.81784 C6.89704,13.54704 7.5196,13.03624 8.03896,13.03624 C8.55424,13.03624 9.1736,13.53728 9.42872,13.80248 C9.64309133,14.0152092 9.96282566,14.081346 10.244,13.97112 L10.24728,13.96952 L10.25128,13.96704 L11.88976,13.05008 L11.89384,13.0476 L11.89712,13.0452 C12.1507984,12.8558212 12.2421016,12.5175397 12.11816,12.22624 C12.0883071,12.1541671 12.0622711,12.0805718 12.04016,12.00576 C11.9930276,11.8554491 11.9673081,11.6992472 11.96376,11.54176 C11.9620751,10.5599374 12.7553049,9.76194835 13.73712,9.75776 L13.81192,9.75776 C13.97776,9.75776 14.1972,9.61752 14.272,9.22104 L14.27272,9.22104 C14.3532265,8.80427696 14.3981086,8.38141695 14.40688,7.95704 C14.3991722,7.53215437 14.3543348,7.10875592 14.27288,6.69168 L14.27288,6.69168 Z M11.08728,8.92368 C11.090446,8.96985061 11.0850209,9.01620797 11.07128,9.0604 C10.8623466,9.6678277 10.4616265,10.1908808 9.92952,10.55072 C9.43913938,10.8969741 8.85350409,11.0827486 8.2532,11.0824803 C6.98894568,11.0757922 5.86842761,10.2670665 5.46384,9.06928 C5.45221932,9.03081104 5.44681795,8.99073283 5.44784,8.95056 C5.25492897,8.31390151 5.27896048,7.63119837 5.51616,7.00968 C5.51823554,6.97326302 5.52559242,6.93734096 5.538,6.90304 C5.99388048,5.80488206 7.06410478,5.08742594 8.25312,5.08287973 C8.68013987,5.08269463 9.10191678,5.17694492 9.48824,5.35888 C10.1681612,5.66579308 10.7069998,6.21829049 10.9968,6.90568 C11.012576,6.94757219 11.0207049,6.99195586 11.0208,7.03672 C11.2427878,7.64260304 11.2660727,8.30343516 11.08728,8.92344 L11.08728,8.92368 Z M8.27688,5.84584 C7.34040283,5.83858188 6.49884979,6.41633605 6.16913171,7.29287935 C5.83941363,8.16942266 6.09156149,9.1585803 6.80065961,9.77031719 C7.50975773,10.3820541 8.52519611,10.4864394 9.34392,10.03176 C10.1055924,9.5836693 10.5361372,8.73267024 10.4459212,7.85358484 C10.3557052,6.97449943 9.76128787,6.22868693 8.92448,5.94464 C8.71475618,5.87953392 8.4964764,5.84615154 8.27688,5.8456 L8.27688,5.84584 Z" id="形状" fill="#515B6A"></path>
                </g>
            </g>
        </g>
    </g>
</svg>