<?xml version="1.0" encoding="UTF-8"?>
<svg width="16px" height="14px" viewBox="0 0 16 14" version="1.1" xmlns="http://www.w3.org/2000/svg" xmlns:xlink="http://www.w3.org/1999/xlink">
    <!-- Generator: Sketch 63.1 (92452) - https://sketch.com -->
    <title></title>
    <desc>Created with Sketch.</desc>
    <g id="体验优化" stroke="none" stroke-width="1" fill="none" fill-rule="evenodd">
        <g id="1-成员管理" transform="translate(-1307.000000, -18.000000)">
            <g id="导航备份-2">
                <g id="消息" transform="translate(1307.000000, 17.000000)">
                    <rect id="矩形" fill="#000000" fill-rule="nonzero" opacity="0" x="0" y="0" width="16" height="16"></rect>
                    <path d="M13,1.5 C14.6568542,1.5 16,2.84314575 16,4.5 L16,13.5 C16,14.0522847 15.5522847,14.5 15,14.5 L3,14.5 C1.34314575,14.5 2.02906125e-16,13.1568542 0,11.5 L0,4.5 C-2.02906125e-16,2.84314575 1.34314575,1.5 3,1.5 L13,1.5 Z M13,2.5 L3,2.5 C1.8954305,2.5 1,3.3954305 1,4.5 L1,4.5 L1,11.5 C1,12.6045695 1.8954305,13.5 3,13.5 L3,13.5 L15,13.5 L15,4.5 C15,3.3954305 14.1045695,2.5 13,2.5 L13,2.5 Z" id="形状" fill="#515B6A" fill-rule="nonzero"></path>
                    <g id="编组-3" opacity="0.849999964" transform="translate(3.000000, 6.500000)" fill="#515B6A">
                        <path d="M1,0.5 C1.55228475,0.5 2,0.94771525 2,1.5 C2,2.05228475 1.55228475,2.5 1,2.5 C0.44771525,2.5 0,2.05228475 0,1.5 C0,0.94771525 0.44771525,0.5 1,0.5 Z M5,0.5 C5.55228475,0.5 6,0.94771525 6,1.5 C6,2.05228475 5.55228475,2.5 5,2.5 C4.44771525,2.5 4,2.05228475 4,1.5 C4,0.94771525 4.44771525,0.5 5,0.5 Z M9,0.5 C9.55228475,0.5 10,0.94771525 10,1.5 C10,2.05228475 9.55228475,2.5 9,2.5 C8.44771525,2.5 8,2.05228475 8,1.5 C8,0.94771525 8.44771525,0.5 9,0.5 Z" id="形状结合"></path>
                    </g>
                </g>
            </g>
        </g>
    </g>
</svg>