<?xml version="1.0" encoding="UTF-8"?>
<svg width="22px" height="18px" viewBox="0 0 22 18" version="1.1" xmlns="http://www.w3.org/2000/svg" xmlns:xlink="http://www.w3.org/1999/xlink">
    <!-- Generator: Sketch 63.1 (92452) - https://sketch.com -->
    <title></title>
    <desc>Created with Sketch.</desc>
    <g id="提交反馈" stroke="none" stroke-width="1" fill="none" fill-rule="evenodd" opacity="0.849999964">
        <g id="1-页面反馈" transform="translate(-1287.000000, -31.000000)" fill="#000000">
            <g id="导航备份-2">
                <g id="消息" transform="translate(1286.000000, 28.000000)">
                    <rect id="矩形" fill-rule="nonzero" opacity="0" x="0" y="0" width="24" height="24"></rect>
                    <path d="M18,3 C20.7614237,3 23,5.23857625 23,8 L23,19 C23,20.1045695 22.1045695,21 21,21 L6,21 C3.23857625,21 1,18.7614237 1,16 L1,8 C1,5.23857625 3.23857625,3 6,3 L18,3 Z M18,5 L6,5 C4.34314575,5 3,6.34314575 3,8 L3,8 L3,16 C3,17.6568542 4.34314575,19 6,19 L6,19 L21,19 L21,8 C21,6.34314575 19.6568542,5 18,5 L18,5 Z" id="形状" fill-rule="nonzero"></path>
                    <g id="编组-3" transform="translate(7.000000, 11.000000)">
                        <path d="M1,0 C1.55228475,0 2,0.44771525 2,1 C2,1.55228475 1.55228475,2 1,2 C0.44771525,2 0,1.55228475 0,1 C0,0.44771525 0.44771525,0 1,0 Z M5,0 C5.55228475,0 6,0.44771525 6,1 C6,1.55228475 5.55228475,2 5,2 C4.44771525,2 4,1.55228475 4,1 C4,0.44771525 4.44771525,0 5,0 Z M9,0 C9.55228475,0 10,0.44771525 10,1 C10,1.55228475 9.55228475,2 9,2 C8.44771525,2 8,1.55228475 8,1 C8,0.44771525 8.44771525,0 9,0 Z" id="形状结合"></path>
                    </g>
                </g>
            </g>
        </g>
    </g>
</svg>