<?xml version="1.0" encoding="UTF-8"?>
<svg width="16px" height="16px" viewBox="0 0 16 16" version="1.1" xmlns="http://www.w3.org/2000/svg" xmlns:xlink="http://www.w3.org/1999/xlink">
    <!-- Generator: Sketch 63.1 (92452) - https://sketch.com -->
    <title>角色</title>
    <desc>Created with Sketch.</desc>
    <g id="超管-申请审批" stroke="none" stroke-width="1" fill="none" fill-rule="evenodd">
        <g id="4-审批记录" transform="translate(-250.000000, -340.000000)" fill-rule="nonzero">
            <g id="表格" transform="translate(238.000000, 111.000000)">
                <g transform="translate(0.000000, 45.000000)" id="内容">
                    <g>
                        <g id="创建人备份-3">
                            <g id="角色" transform="translate(12.000000, 180.000000)">
                                <rect id="矩形备份-6" fill="#F9AD10" x="0" y="4" width="16" height="16" rx="2"></rect>
                                <path d="M4.21,16.54 C4.73,15.89 5.09,15.11 5.29,14.21 L7.82,14.21 L7.82,16.32 L8.53,16.32 L8.53,14.21 L11.09,14.21 L11.09,15.31 C11.09,15.65 10.92,15.82 10.6,15.82 C10.22,15.82 9.8,15.8 9.35,15.78 L9.53,16.45 L10.81,16.45 C11.46,16.45 11.79,16.15 11.79,15.56 L11.79,9.81 L9.21,9.81 C9.66,9.49 10.11,9.11 10.56,8.67 L10.56,8.14 L6.83,8.14 C6.99,7.91 7.16,7.67 7.32,7.42 L6.6,7.26 C5.8,8.48 4.76,9.47 3.48,10.23 L3.94,10.78 C4.22,10.6 4.49,10.42 4.76,10.22 L4.76,12.6 C4.74,13.99 4.38,15.14 3.66,16.04 L4.21,16.54 Z M8.16,9.81 L5.26,9.81 C5.63,9.49 5.98,9.15 6.32,8.77 L9.57,8.77 C9.1,9.17 8.63,9.51 8.16,9.81 Z M11.09,11.74 L8.53,11.74 L8.53,10.46 L11.09,10.46 L11.09,11.74 Z M7.82,11.74 L5.47,11.74 L5.47,10.46 L7.82,10.46 L7.82,11.74 Z M7.82,13.57 L5.4,13.57 C5.44,13.25 5.46,12.91 5.47,12.55 L5.47,12.38 L7.82,12.38 L7.82,13.57 Z M11.09,13.57 L8.53,13.57 L8.53,12.38 L11.09,12.38 L11.09,13.57 Z" id="角" fill="#FFFFFF"></path>
                            </g>
                        </g>
                    </g>
                </g>
            </g>
        </g>
    </g>
</svg>