<?xml version="1.0" encoding="UTF-8"?>
<svg width="22px" height="22px" viewBox="0 0 22 22" version="1.1" xmlns="http://www.w3.org/2000/svg" xmlns:xlink="http://www.w3.org/1999/xlink">
    <!-- Generator: Sketch 63.1 (92452) - https://sketch.com -->
    <title>设置</title>
    <desc>Created with Sketch.</desc>
    <g id="提交反馈" stroke="none" stroke-width="1" fill="none" fill-rule="evenodd" opacity="0.849999964">
        <g id="1-页面反馈" transform="translate(-1245.000000, -30.000000)" fill="#000000" fill-rule="nonzero">
            <g id="导航备份-2">
                <g id="设置" transform="translate(1244.000000, 29.000000)">
                    <rect id="矩形" opacity="0" x="0" y="0" width="24" height="24"></rect>
                    <path d="M20.5476563,13.7742187 C19.4953125,13.93125 18.571875,14.559375 18.0445313,15.4804688 C17.5101563,16.396875 17.4257813,17.5054688 17.8125,18.4921875 C16.9171875,19.29375 15.8625,19.9007813 14.71875,20.2757813 C14.0578125,19.4460938 13.05,18.9632813 11.9859375,18.9679688 C10.921875,18.9632813 9.9140625,19.4460938 9.253125,20.2757813 C8.109375,19.9007813 7.05703125,19.29375 6.159375,18.4945313 C6.5484375,17.5078125 6.4640625,16.3992188 5.9296875,15.4828125 C5.40234375,14.5617188 4.47890625,13.9335938 3.4265625,13.7765625 C3.1828125,12.6023438 3.1828125,11.390625 3.4265625,10.2140625 C4.47890625,10.059375 5.40234375,9.43125 5.9296875,8.51015625 C6.4640625,7.59375 6.5484375,6.48515625 6.159375,5.4984375 C7.0546875,4.696875 8.109375,4.08984375 9.253125,3.71484375 C9.91640625,4.54453125 10.921875,5.02734375 11.9859375,5.02265625 C13.0710938,5.02265625 14.0648438,4.53515625 14.71875,3.71484375 C15.8625,4.08984375 16.9148438,4.696875 17.8125,5.4984375 C17.4234375,6.48515625 17.5078125,7.59375 18.0445313,8.51015625 C18.571875,9.43125 19.4953125,10.059375 20.5476563,10.2140625 C20.79375,11.3859375 20.79375,12.5976562 20.5476563,13.7742187 M22.0828125,9.1359375 C21.9726562,8.73984375 21.5976562,8.475 21.1851563,8.503125 C20.521875,8.54765625 19.8890625,8.21015625 19.5585938,7.6359375 C19.2234375,7.06171875 19.246875,6.34921875 19.6171875,5.79609375 C19.8445313,5.45390625 19.8023438,5.0015625 19.5164063,4.70859375 C18.1617188,3.3140625 16.44375,2.325 14.5546875,1.84921875 C14.15625,1.7484375 13.7414063,1.940625 13.5585938,2.30859375 C13.265625,2.90390625 12.65625,3.28125 11.990625,3.27890625 C11.325,3.28125 10.715625,2.90390625 10.4226563,2.30859375 C10.2398438,1.940625 9.825,1.75078125 9.4265625,1.84921875 C7.5375,2.32265625 5.81953125,3.3140625 4.4625,4.70859375 C4.1765625,5.00390625 4.134375,5.45625 4.36171875,5.7984375 C4.73203125,6.34921875 4.75546875,7.0640625 4.4203125,7.6359375 C4.08984375,8.2125 3.459375,8.54765625 2.79375,8.503125 C2.38125,8.47265625 2.00625,8.7375 1.8984375,9.1359375 C1.63359375,10.0640625 1.5,11.0273438 1.5,11.9929688 C1.5,12.9632813 1.63359375,13.9242188 1.89609375,14.85 C2.00859375,15.2460938 2.38125,15.5085938 2.79140625,15.4828125 C3.4546875,15.440625 4.08515625,15.778125 4.41796875,16.3523438 C4.753125,16.9289063 4.73203125,17.634375 4.359375,18.1898438 C4.13203125,18.5320313 4.17421875,18.984375 4.46015625,19.2773438 C5.81484375,20.671875 7.53515625,21.6632813 9.42421875,22.1367188 C9.82265625,22.2375 10.2375,22.0476563 10.4203125,21.6796875 C10.7132813,21.084375 11.3226563,20.7070312 11.9882813,20.7117188 C12.6585938,20.7117188 13.2585938,21.0820312 13.55625,21.6796875 C13.7390625,22.0476563 14.1539063,22.2375 14.5523438,22.1390625 C16.4414063,21.665625 18.159375,20.6742188 19.5164063,19.2796875 C19.8023438,18.984375 19.8445313,18.5320313 19.6171875,18.1898438 C19.246875,17.6390625 19.2257813,16.9265625 19.5585938,16.3546875 C19.8867188,15.7757813 20.5195313,15.4382813 21.1851563,15.4851563 C21.5953125,15.5085938 21.9703125,15.2484375 22.0828125,14.8523438 C22.3476563,13.921875 22.48125,12.9609375 22.4789366,11.9953125 C22.4789366,11.0226563 22.3453125,10.0617188 22.0828125,9.1359375" id="形状"></path>
                    <path d="M11.990625,14.60625 C10.5445313,14.60625 9.36796875,13.4320313 9.36796875,11.9929688 C9.36796875,10.5515625 10.5445313,9.3796875 11.990625,9.3796875 C13.4367187,9.3796875 14.6132812,10.5515625 14.6132812,11.9929688 C14.6132812,13.434375 13.4367187,14.60625 11.990625,14.60625 M11.990625,7.6359375 C9.58125,7.6359375 7.61953125,9.590625 7.61953125,11.9929688 C7.61953125,14.3953125 9.58125,16.35 11.990625,16.35 C14.4,16.35 16.3617188,14.3953125 16.3617188,11.9929688 C16.359375,9.58828125 14.4,7.6359375 11.990625,7.6359375" id="形状"></path>
                </g>
            </g>
        </g>
    </g>
</svg>