<?xml version="1.0" encoding="UTF-8"?>
<svg width="12px" height="12px" viewBox="0 0 12 12" version="1.1" xmlns="http://www.w3.org/2000/svg" xmlns:xlink="http://www.w3.org/1999/xlink">
    <title>禁止</title>
    <g id="权限限制样式" stroke="none" stroke-width="1" fill="none" fill-rule="evenodd">
        <g id="权限限制-提示" transform="translate(-1325.000000, -145.000000)" fill="#000000" fill-rule="nonzero">
            <g id="反馈/Popconfirm气泡确认框/暗色/上中⬇️" transform="translate(1317.000000, 137.000000)">
                <g id="禁止" transform="translate(8.000000, 8.000000)">
                    <rect id="矩形" opacity="0" x="0" y="0" width="11.84" height="11.84"></rect>
                    <path d="M5.92,0.145972608 C2.72482192,0.145972608 0.129753427,2.75726027 0.129753427,5.93621918 C0.129753427,9.13139726 2.72482192,11.7264658 5.92,11.7264658 C9.11517808,11.7264658 11.7102466,9.13139726 11.7102466,5.93621918 C11.7102466,2.75726027 9.11517808,0.145972608 5.92,0.145972608 Z M5.92,0.956931509 C7.15265753,0.956931509 8.27178082,1.41106849 9.13139726,2.14093151 L2.12471233,9.16383561 C1.37863014,8.288 0.940712327,7.16887671 0.940712327,5.95243835 C0.940712327,3.19517808 3.1789589,0.956931509 5.92,0.956931509 Z M5.92,10.9155069 C4.68734247,10.9155069 3.56821918,10.4613699 2.70860274,9.73150685 L9.71528767,2.72482192 C10.4613699,3.60065753 10.8992877,4.71978082 10.8992877,5.93621918 C10.8992877,8.69347945 8.6610411,10.9155069 5.92,10.9155069 Z" id="形状" fill-opacity="0.65"></path>
                </g>
            </g>
        </g>
    </g>
</svg>