<?xml version="1.0" encoding="UTF-8"?>
<svg width="201px" height="191px" viewBox="0 0 201 191" version="1.1" xmlns="http://www.w3.org/2000/svg" xmlns:xlink="http://www.w3.org/1999/xlink">
    <title></title>
    <g id="创建ws" stroke="none" stroke-width="1" fill="none" fill-rule="evenodd">
        <g id="系统初始化" transform="translate(-511.000000, -384.000000)">
            <g id="编组" transform="translate(511.000000, 384.000000)">
                <g id="1.组合示例/2.页面组合示例/15.页面组合示例" transform="translate(0.000000, 0.000000)">
                    <ellipse id="椭圆形" fill="#EDEDED" opacity="0.503534226" cx="100.793707" cy="99.3818152" rx="86.6203728" ry="86.6693211"></ellipse>
                    <path d="M42.1872582,66.9326237 L19.3893997,66.9326237 C16.5153293,66.9326237 14.1639453,64.6015275 14.1639453,61.7528754 L14.1639453,38.8823804 C14.1639453,36.033449 16.5153293,33.7023528 19.3893997,33.7023528 L42.1872582,33.7023528 C45.0613286,33.7023528 47.4129944,36.033449 47.4129944,38.8823804 L47.4129944,61.7528754 C47.4129944,64.6015275 45.0613286,66.9326237 42.1872582,66.9326237" id="Fill-3" fill="#7DB308" transform="translate(30.788470, 50.317488) rotate(-270.000000) translate(-30.788470, -50.317488) "></path>
                    <g id="资源-29-copy-3" transform="translate(30.648679, 47.679943)" fill-rule="nonzero">
                        <rect id="矩形" fill="#E4EBF7" x="0" y="4.93905628" width="145.701957" height="107.097859" rx="4.27240165"></rect>
                        <rect id="矩形" fill="#253369" x="13.1536489" y="23.9827562" width="119.39466" height="78.2488231" rx="1.62415304"></rect>
                        <g id="分组" transform="translate(29.140391, 34.754672)">
                            <rect id="矩形-copy-20" fill="#FFFFFF" x="0.00448961601" y="13.261157" width="80.8130882" height="3.79771599"></rect>
                            <rect id="矩形-copy-20" fill="#FFC53D" x="0.00224480801" y="26.4719973" width="40.4065441" height="3.79771599"></rect>
                            <rect id="矩形-copy-20" fill="#E4EBF7" x="0.00224480801" y="52.8936778" width="40.4065441" height="3.79771599"></rect>
                            <rect id="矩形-copy-20" fill="#E4EBF7" x="0" y="0" width="24.2439265" height="3.79771599"></rect>
                            <rect id="矩形-copy-21" fill="#E4EBF7" x="48.5673191" y="26.4216805" width="12.1418298" height="3.79771599"></rect>
                            <rect id="矩形-copy-20" fill="#FFFFFF" x="0.00336721201" y="39.6828375" width="60.6098161" height="3.79771599"></rect>
                        </g>
                        <path d="M3.902731,0 L141.72605,0 C143.881469,0 145.628781,1.71196709 145.628781,3.82378551 L145.628781,15.2186663 L0,15.2186663 L0,3.82378551 C0,1.71196709 1.74731219,0 3.902731,0 Z" id="路径" fill="#253369"></path>
                        <ellipse id="椭圆形" fill="#FF7946" cx="8.34208751" cy="7.60933316" rx="2.78557425" ry="2.72922691"></ellipse>
                        <ellipse id="椭圆形" fill="#FFC53D" cx="18.7461179" cy="7.60933316" rx="2.78557425" ry="2.72922691"></ellipse>
                        <ellipse id="椭圆形" fill="#BAE637" cx="29.1517744" cy="7.60933316" rx="2.78557425" ry="2.72922691"></ellipse>
                    </g>
                    <path d="M39.1913502,151.487865 C31.9792736,151.487865 26.1326703,145.637958 26.1326703,138.421806 C26.1326703,131.205654 31.9792736,125.355747 39.1913502,125.355747 C46.4034269,125.355747 52.2500302,131.205654 52.2500302,138.421806 C52.2500302,145.637958 46.4034269,151.487865 39.1913502,151.487865 L39.1913502,151.487865 Z M78.3827005,144.332238 L78.3827005,132.511223 L69.0713043,130.143987 C68.3884926,127.670418 67.4072792,125.321054 66.1684915,123.136894 L71.080713,114.873042 L62.7268143,106.514273 L54.4676297,111.42942 C52.2845535,110.189782 49.9365159,109.208164 47.4644943,108.524817 L45.0984445,99.208309 L33.2841059,99.208309 L30.9182061,108.524817 C28.4460345,109.208164 26.0979968,110.189782 23.9150708,111.42942 L15.6558861,106.514273 L7.30183732,114.873042 L12.2140588,123.136894 C10.9754213,125.321054 9.99420784,127.670568 9.31124604,130.143987 L7.10542736e-15,132.511223 L7.10542736e-15,144.332238 L9.31124604,146.699625 C9.99420784,149.173043 10.9754213,151.522408 12.2140588,153.706718 L7.30183732,161.97057 L15.6558861,170.329339 L23.9150708,165.414192 C26.0979968,166.653679 28.4460345,167.635447 30.9182061,168.318795 L33.2841059,177.635303 L45.0984445,177.635303 L47.4644943,168.318795 C49.9365159,167.635447 52.2845535,166.653679 54.4676297,165.414192 L62.7268143,170.329339 L71.080713,161.97057 L66.1684915,153.706718 C67.4072792,151.522408 68.3884926,149.173043 69.0713043,146.699625 L78.3827005,144.332238 Z" id="Fill-1备份" fill="#597EF7"></path>
                    <path d="M173.934252,162.903738 C170.718677,162.903738 168.111911,160.295499 168.111911,157.078107 C168.111911,153.860714 170.718677,151.252475 173.934252,151.252475 C177.149828,151.252475 179.756594,153.860714 179.756594,157.078107 C179.756594,160.295499 177.149828,162.903738 173.934252,162.903738 L173.934252,162.903738 Z M191.408103,159.713331 L191.408103,154.442815 L187.256525,153.387359 C186.952087,152.284494 186.514603,151.237007 185.962277,150.263178 L188.15244,146.578658 L184.427772,142.851818 L180.745333,145.043285 C179.771986,144.49058 178.725091,144.052916 177.622915,143.748239 L176.567989,139.594382 L171.300449,139.594382 L170.24559,143.748239 C169.143347,144.052916 168.096452,144.49058 167.123172,145.043285 L163.440733,142.851818 L159.715998,146.578658 L161.906161,150.263178 C161.353902,151.237007 160.916418,152.284561 160.611913,153.387359 L156.460402,154.442815 L156.460402,159.713331 L160.611913,160.768854 C160.916418,161.871652 161.353902,162.91914 161.906161,163.893036 L159.715998,167.577556 L163.440733,171.304396 L167.123172,169.112928 C168.096452,169.665566 169.143347,170.103297 170.24559,170.407975 L171.300449,174.561831 L176.567989,174.561831 L177.622915,170.407975 C178.725091,170.103297 179.771986,169.665566 180.745333,169.112928 L184.427772,171.304396 L188.15244,167.577556 L185.962277,163.893036 C186.514603,162.91914 186.952087,161.871652 187.256525,160.768854 L191.408103,159.713331 Z" id="Fill-1备份-2" fill="#FF885A" transform="translate(173.934252, 157.078107) rotate(-297.000000) translate(-173.934252, -157.078107) "></path>
                    <g id="分组备份-4" opacity="0.21030971" transform="translate(195.901379, 115.616702) rotate(-270.000000) translate(-195.901379, -115.616702) translate(191.408103, 111.120887)" fill="#597EF7">
                        <path d="M7.57413989,8.99162986 L1.4123356,8.99162986 C0.635531979,8.99162986 0,8.36086899 0,7.59006501 L0,1.40164042 C0,0.630760862 0.635531979,2.83952768e-14 1.4123356,2.83952768e-14 L7.57413989,2.83952768e-14 C8.35094351,2.83952768e-14 8.98655165,0.630760862 8.98655165,1.40164042 L8.98655165,7.59006501 C8.98655165,8.36086899 8.35094351,8.99162986 7.57413989,8.99162986" id="Fill-3"></path>
                    </g>
                    <g id="分组备份-6" opacity="0.21030971" transform="translate(110.279512, 184.638367) rotate(-225.000000) translate(-110.279512, -184.638367) translate(105.786236, 180.142552)" fill="#597EF7">
                        <path d="M7.57413989,8.99162986 L1.4123356,8.99162986 C0.635531979,8.99162986 -2.837924e-14,8.36086899 -2.837924e-14,7.59006501 L-2.837924e-14,1.40164042 C-2.837924e-14,0.630760862 0.635531979,2.83952768e-14 1.4123356,2.83952768e-14 L7.57413989,2.83952768e-14 C8.35094351,2.83952768e-14 8.98655165,0.630760862 8.98655165,1.40164042 L8.98655165,7.59006501 C8.98655165,8.36086899 8.35094351,8.99162986 7.57413989,8.99162986" id="Fill-3"></path>
                    </g>
                    <g id="分组备份-5" opacity="0.21030971" transform="translate(91.058276, 12.712494) rotate(-225.000000) translate(-91.058276, -12.712494) translate(82.071725, 3.720864)" fill="#597EF7">
                        <path d="M15.1482798,17.9832597 L2.82467119,17.9832597 C1.27106396,17.9832597 0,16.721738 0,15.18013 L0,2.80328084 C0,1.26152172 1.27106396,0 2.82467119,0 L15.1482798,0 C16.701887,0 17.9731033,1.26152172 17.9731033,2.80328084 L17.9731033,15.18013 C17.9731033,16.721738 16.701887,17.9832597 15.1482798,17.9832597" id="Fill-3"></path>
                    </g>
                </g>
            </g>
        </g>
    </g>
</svg>