<?xml version="1.0" encoding="UTF-8"?>
<svg width="12px" height="12px" viewBox="0 0 12 12" version="1.1" xmlns="http://www.w3.org/2000/svg" xmlns:xlink="http://www.w3.org/1999/xlink">
    <title></title>
    <g id="体验升级-第一阶段" stroke="none" stroke-width="1" fill="none" fill-rule="evenodd" opacity="0.400000006">
        <g id="1.ws系统级" transform="translate(-394.000000, -599.000000)">
            <g id="Group-6-Copy-3" transform="translate(376.000000, 466.000000)">
                <g id="Group-5" transform="translate(16.000000, 128.000000)">
                    <g id="icon_private" transform="translate(0.000000, 3.000000)">
                        <rect id="Rectangle" stroke="#000000" x="2.5" y="6.5" width="11" height="7" rx="1"></rect>
                        <circle id="Oval" fill="#000000" cx="8" cy="10" r="2"></circle>
                        <path d="M8,2 C10.209139,2 12,3.790861 12,6 L12,7 L11,7 L11,6 C11,4.40231912 9.75108004,3.09633912 8.17627279,3.00509269 L8,3 C6.34314575,3 5,4.34314575 5,6 L5,6 L5,7 L4,7 L4,6 C4,3.790861 5.790861,2 8,2 Z" id="Combined-Shape" fill="#000000"></path>
                    </g>
                </g>
            </g>
        </g>
    </g>
</svg>