<?xml version="1.0" encoding="UTF-8"?>
<svg width="14px" height="14px" viewBox="0 0 14 14" version="1.1" xmlns="http://www.w3.org/2000/svg" xmlns:xlink="http://www.w3.org/1999/xlink">
    <!-- Generator: Sketch 63.1 (92452) - https://sketch.com -->
    <title>失败</title>
    <desc>Created with Sketch.</desc>
    <g id="机器管理" stroke="none" stroke-width="1" fill="none" fill-rule="evenodd">
        <g id="0-表格筛选、抽屉弹层汇总" transform="translate(-1318.000000, -653.000000)" fill-rule="nonzero">
            <g id="抽屉" transform="translate(991.000000, 533.000000)">
                <g id="输入框" transform="translate(24.000000, 80.111266)">
                    <g id="失败" transform="translate(302.000000, 38.888734)">
                        <rect id="矩形" fill="#000000" opacity="0" x="0" y="0" width="16" height="16"></rect>
                        <path d="M8,15 C4.134375,15 1,11.865625 1,8 C1,4.134375 4.134375,1 8,1 C11.865625,1 15,4.134375 15,8 C15,11.865625 11.865625,15 8,15 Z M8,2.1671875 C4.778125,2.1671875 2.1671875,4.778125 2.1671875,8 C2.1671875,11.221875 4.778125,13.8328125 8,13.8328125 C11.221875,13.8328125 13.8328125,11.221875 13.8328125,8 C13.8328125,4.778125 11.221875,2.1671875 8,2.1671875 Z" id="形状" fill="#F5222D"></path>
                        <path d="M7.2265625,11.5265625 C7.2265625,11.958035 7.57634004,12.3078125 8.0078125,12.3078125 C8.43928496,12.3078125 8.7890625,11.958035 8.7890625,11.5265625 C8.7890625,11.09509 8.43928496,10.7453125 8.0078125,10.7453125 C7.57634004,10.7453125 7.2265625,11.09509 7.2265625,11.5265625 Z" id="路径" fill="#F5222D"></path>
                        <path d="M9.0078125,4.7 C9.0078125,4.146875 8.559375,3.6984375 8.0078125,3.6984375 C7.45625,3.6984375 7.0078125,4.146875 7.0078125,4.6984375 L7.0078125,4.7 L7.3828125,9.4125 C7.390625,9.75 7.6671875,10.021875 8.0078125,10.021875 C8.3484375,10.021875 8.6234375,9.75 8.6328125,9.4125 L9.0078125,4.7 Z" id="路径" fill="#F5222D"></path>
                    </g>
                </g>
            </g>
        </g>
    </g>
</svg>