<?xml version="1.0" encoding="UTF-8"?>
<svg width="14px" height="14px" viewBox="0 0 14 14" version="1.1" xmlns="http://www.w3.org/2000/svg" xmlns:xlink="http://www.w3.org/1999/xlink">
    <!-- Generator: Sketch 63.1 (92452) - https://sketch.com -->
    <title>成功</title>
    <desc>Created with Sketch.</desc>
    <g id="机器管理" stroke="none" stroke-width="1" fill="none" fill-rule="evenodd">
        <g id="0-表格筛选、抽屉弹层汇总" transform="translate(-875.000000, -653.000000)" fill-rule="nonzero">
            <g id="抽屉" transform="translate(548.000000, 533.000000)">
                <g id="输入框" transform="translate(24.000000, 80.111266)">
                    <g id="成功" transform="translate(302.000000, 38.888734)">
                        <rect id="矩形" fill="#000000" opacity="0" x="0" y="0" width="16" height="16"></rect>
                        <path d="M8,15 C4.134375,15 1,11.865625 1,8 C1,4.134375 4.134375,1 8,1 C11.865625,1 15,4.134375 15,8 C15,11.865625 11.865625,15 8,15 Z M8,2.1671875 C4.778125,2.1671875 2.1671875,4.778125 2.1671875,8 C2.1671875,11.221875 4.778125,13.8328125 8,13.8328125 C11.221875,13.8328125 13.8328125,11.221875 13.8328125,8 C13.8328125,4.778125 11.221875,2.1671875 8,2.1671875 Z M7.8578125,10.7171875 C7.6296875,10.9453125 7.2609375,10.9453125 7.034375,10.7171875 C6.9921875,10.671875 6.9578125,10.6203125 6.9328125,10.565625 L4.765625,8.3328125 C4.5375,8.1046875 4.5375,7.7359375 4.7640625,7.5078125 C4.9921875,7.2796875 5.3609375,7.2796875 5.5890625,7.50625 L5.6,7.5171875 L7.4765625,9.4484375 L11.059375,5.865625 C11.290625,5.6421875 11.6609375,5.6484375 11.884375,5.8796875 C12.103125,6.10625 12.103125,6.4640625 11.884375,6.6890625 L7.8578125,10.7171875 L7.8578125,10.7171875 Z" id="形状" fill="#39C15B"></path>
                    </g>
                </g>
            </g>
        </g>
    </g>
</svg>